<?xml version="1.0" standalone="no"?>
<!DOCTYPE svg PUBLIC "-//W3C//DTD SVG 20010904//EN"
 "http://www.w3.org/TR/2001/REC-SVG-20010904/DTD/svg10.dtd">
<svg version="1.0" xmlns="http://www.w3.org/2000/svg"
 width="1024.000000pt" height="1024.000000pt" viewBox="0 0 1024.000000 1024.000000"
 preserveAspectRatio="xMidYMid meet">
<metadata>
Created by potrace 1.14, written by Peter Selinger 2001-2017
</metadata>
<g transform="translate(0.000000,1024.000000) scale(0.100000,-0.100000)"
fill="#000000" stroke="none">
<path d="M1283 6878 c2 -1850 6 -3376 10 -3393 3 -16 9 -55 12 -85 7 -65 12
-96 31 -210 8 -47 17 -96 19 -110 2 -14 13 -63 25 -110 11 -47 23 -93 25 -103
2 -10 7 -27 10 -37 3 -10 7 -27 9 -37 5 -25 46 -153 56 -178 5 -11 12 -31 15
-45 4 -14 13 -38 20 -55 7 -16 18 -46 25 -65 33 -89 122 -285 183 -400 65
-123 68 -127 100 -177 15 -24 27 -47 27 -53 0 -5 5 -10 10 -10 6 0 10 -7 10
-15 0 -8 5 -15 10 -15 6 0 10 -5 10 -12 0 -6 11 -26 25 -44 14 -18 25 -35 25
-39 0 -3 5 -11 10 -18 6 -7 48 -61 93 -122 45 -60 84 -112 87 -115 3 -3 27
-32 55 -65 97 -117 291 -315 395 -405 29 -25 60 -52 70 -60 37 -32 79 -66 100
-80 12 -8 39 -30 59 -47 20 -18 41 -33 48 -33 6 0 13 -4 15 -9 2 -5 48 -38
103 -75 55 -36 105 -69 110 -73 17 -14 196 -116 264 -150 36 -19 69 -37 75
-42 6 -5 13 -9 16 -9 3 1 26 -9 53 -21 165 -74 229 -101 241 -101 6 0 23 -6
37 -14 24 -12 202 -74 232 -80 7 -2 19 -6 27 -9 18 -7 93 -27 100 -26 3 0 18
-4 33 -10 15 -6 42 -13 60 -16 18 -3 48 -10 67 -15 19 -5 51 -12 70 -15 19 -3
58 -10 85 -15 57 -11 109 -19 175 -25 25 -3 55 -7 67 -10 111 -26 701 -26 873
0 14 2 50 7 80 10 30 4 62 9 70 10 8 1 35 6 60 11 25 4 50 8 55 9 6 1 12 3 15
4 3 1 18 4 35 6 16 2 51 9 76 15 26 6 55 13 65 15 11 2 19 4 19 5 0 1 7 3 15
5 31 6 167 44 230 63 128 40 377 136 395 153 5 5 17 9 27 9 10 0 18 5 18 12 0
6 3 8 6 5 6 -6 221 101 300 149 18 10 58 35 90 54 84 49 248 161 252 171 2 5
8 9 14 9 10 0 206 155 292 232 56 50 231 223 294 291 33 36 198 240 265 327
38 49 152 226 149 232 -1 5 2 8 6 8 5 0 19 21 33 46 13 25 29 53 34 62 22 35
45 82 44 88 0 4 4 10 9 13 11 7 135 262 147 301 4 14 11 30 15 35 4 6 19 44
34 85 15 41 31 84 36 95 5 11 25 74 45 140 20 66 40 135 46 153 6 18 12 42 15
55 4 24 11 53 19 90 13 53 40 195 50 262 4 22 8 52 11 66 2 14 6 52 10 85 3
32 8 75 12 94 3 19 7 1544 9 3388 l3 3352 -3840 0 -3841 0 4 -3362z"/>
</g>
</svg>
